<mxfile host="app.diagrams.net" agent="Mozilla/5.0 (Windows NT 10.0; Win64; x64) AppleWebKit/537.36 (KHTML, like Gecko) Chrome/125.0.0.0 Safari/537.36" version="24.7.10">
  <diagram name="第 1 页" id="Pl0FPyJrfiCvp82Acye5">
    <mxGraphModel dx="3088" dy="746" grid="1" gridSize="10" guides="1" tooltips="1" connect="1" arrows="1" fold="1" page="1" pageScale="1" pageWidth="1654" pageHeight="1169" math="0" shadow="0">
      <root>
        <mxCell id="0" />
        <mxCell id="1" parent="0" />
        <mxCell id="GhOr7ypgz1Hb5UwMiD2d-1" value="" style="rounded=0;whiteSpace=wrap;html=1;dashed=1;dashPattern=8 8;" vertex="1" parent="1">
          <mxGeometry x="-770" y="140" width="560" height="140" as="geometry" />
        </mxCell>
        <mxCell id="2Fw3K3ErpVfma8s09jKB-1" value="&lt;div&gt;&lt;span style=&quot;font-size: 18px;&quot;&gt;PLCS&lt;/span&gt;&lt;/div&gt;" style="shape=ext;double=1;rounded=1;whiteSpace=wrap;html=1;fillColor=#dae8fc;strokeColor=#6c8ebf;" parent="1" vertex="1">
          <mxGeometry x="-1430" y="200" width="100" height="50" as="geometry" />
        </mxCell>
        <mxCell id="2Fw3K3ErpVfma8s09jKB-2" value="&lt;div&gt;&lt;span style=&quot;font-size: 18px;&quot;&gt;UNI&lt;/span&gt;&lt;/div&gt;" style="shape=ext;double=1;rounded=1;whiteSpace=wrap;html=1;fillColor=#dae8fc;strokeColor=#6c8ebf;" parent="1" vertex="1">
          <mxGeometry x="-1220" y="200" width="290" height="50" as="geometry" />
        </mxCell>
        <mxCell id="2Fw3K3ErpVfma8s09jKB-3" value="&lt;span style=&quot;font-size: 18px;&quot;&gt;提测&lt;/span&gt;" style="shape=umlLifeline;perimeter=lifelinePerimeter;whiteSpace=wrap;html=1;container=1;dropTarget=0;collapsible=0;recursiveResize=0;outlineConnect=0;portConstraint=eastwest;newEdgeStyle={&quot;curved&quot;:0,&quot;rounded&quot;:0};fillColor=#dae8fc;strokeColor=#6c8ebf;" parent="1" vertex="1">
          <mxGeometry x="-1430" y="280" width="100" height="370" as="geometry" />
        </mxCell>
        <mxCell id="2Fw3K3ErpVfma8s09jKB-13" value="" style="html=1;points=[[0,0,0,0,5],[0,1,0,0,-5],[1,0,0,0,5],[1,1,0,0,-5]];perimeter=orthogonalPerimeter;outlineConnect=0;targetShapes=umlLifeline;portConstraint=eastwest;newEdgeStyle={&quot;curved&quot;:0,&quot;rounded&quot;:0};" parent="2Fw3K3ErpVfma8s09jKB-3" vertex="1">
          <mxGeometry x="37.5" y="80" width="25" height="80" as="geometry" />
        </mxCell>
        <mxCell id="2Fw3K3ErpVfma8s09jKB-5" value="&lt;span style=&quot;font-size: 18px;&quot;&gt;冒烟&lt;/span&gt;" style="shape=umlLifeline;perimeter=lifelinePerimeter;whiteSpace=wrap;html=1;container=1;dropTarget=0;collapsible=0;recursiveResize=0;outlineConnect=0;portConstraint=eastwest;newEdgeStyle={&quot;curved&quot;:0,&quot;rounded&quot;:0};fillColor=#dae8fc;strokeColor=#6c8ebf;" parent="1" vertex="1">
          <mxGeometry x="-1220" y="280" width="100" height="370" as="geometry" />
        </mxCell>
        <mxCell id="2Fw3K3ErpVfma8s09jKB-6" value="UT&lt;div&gt;流&lt;/div&gt;&lt;div&gt;水&lt;/div&gt;&lt;div&gt;线&lt;/div&gt;" style="html=1;points=[[0,0,0,0,5],[0,1,0,0,-5],[1,0,0,0,5],[1,1,0,0,-5]];perimeter=orthogonalPerimeter;outlineConnect=0;targetShapes=umlLifeline;portConstraint=eastwest;newEdgeStyle={&quot;curved&quot;:0,&quot;rounded&quot;:0};" parent="2Fw3K3ErpVfma8s09jKB-5" vertex="1">
          <mxGeometry x="20" y="80" width="25" height="80" as="geometry" />
        </mxCell>
        <mxCell id="2Fw3K3ErpVfma8s09jKB-11" value="AT&lt;div&gt;流&lt;/div&gt;&lt;div&gt;水&lt;/div&gt;&lt;div&gt;线&lt;/div&gt;" style="html=1;points=[[0,0,0,0,5],[0,1,0,0,-5],[1,0,0,0,5],[1,1,0,0,-5]];perimeter=orthogonalPerimeter;outlineConnect=0;targetShapes=umlLifeline;portConstraint=eastwest;newEdgeStyle={&quot;curved&quot;:0,&quot;rounded&quot;:0};" parent="2Fw3K3ErpVfma8s09jKB-5" vertex="1">
          <mxGeometry x="60" y="80" width="25" height="80" as="geometry" />
        </mxCell>
        <mxCell id="2Fw3K3ErpVfma8s09jKB-12" value="覆&lt;div&gt;盖&lt;/div&gt;&lt;div&gt;率&lt;/div&gt;" style="html=1;points=[[0,0,0,0,5],[0,1,0,0,-5],[1,0,0,0,5],[1,1,0,0,-5]];perimeter=orthogonalPerimeter;outlineConnect=0;targetShapes=umlLifeline;portConstraint=eastwest;newEdgeStyle={&quot;curved&quot;:0,&quot;rounded&quot;:0};" parent="2Fw3K3ErpVfma8s09jKB-5" vertex="1">
          <mxGeometry x="37.5" y="210" width="25" height="80" as="geometry" />
        </mxCell>
        <mxCell id="2Fw3K3ErpVfma8s09jKB-9" value="&lt;span style=&quot;font-size: 18px;&quot;&gt;回归&lt;/span&gt;" style="shape=umlLifeline;perimeter=lifelinePerimeter;whiteSpace=wrap;html=1;container=1;dropTarget=0;collapsible=0;recursiveResize=0;outlineConnect=0;portConstraint=eastwest;newEdgeStyle={&quot;curved&quot;:0,&quot;rounded&quot;:0};fillColor=#dae8fc;strokeColor=#6c8ebf;" parent="1" vertex="1">
          <mxGeometry x="-1030" y="280" width="100" height="370" as="geometry" />
        </mxCell>
        <mxCell id="2Fw3K3ErpVfma8s09jKB-15" value="" style="html=1;points=[[0,0,0,0,5],[0,1,0,0,-5],[1,0,0,0,5],[1,1,0,0,-5]];perimeter=orthogonalPerimeter;outlineConnect=0;targetShapes=umlLifeline;portConstraint=eastwest;newEdgeStyle={&quot;curved&quot;:0,&quot;rounded&quot;:0};" parent="2Fw3K3ErpVfma8s09jKB-9" vertex="1">
          <mxGeometry x="37.5" y="210" width="25" height="80" as="geometry" />
        </mxCell>
        <mxCell id="2Fw3K3ErpVfma8s09jKB-14" style="edgeStyle=orthogonalEdgeStyle;rounded=0;orthogonalLoop=1;jettySize=auto;html=1;curved=0;" parent="1" source="2Fw3K3ErpVfma8s09jKB-13" target="2Fw3K3ErpVfma8s09jKB-6" edge="1">
          <mxGeometry relative="1" as="geometry" />
        </mxCell>
        <mxCell id="2Fw3K3ErpVfma8s09jKB-17" value="提测" style="edgeLabel;html=1;align=center;verticalAlign=middle;resizable=0;points=[];" parent="2Fw3K3ErpVfma8s09jKB-14" vertex="1" connectable="0">
          <mxGeometry x="-0.0269" y="-1" relative="1" as="geometry">
            <mxPoint x="1" as="offset" />
          </mxGeometry>
        </mxCell>
        <mxCell id="2Fw3K3ErpVfma8s09jKB-16" style="edgeStyle=orthogonalEdgeStyle;rounded=0;orthogonalLoop=1;jettySize=auto;html=1;curved=0;" parent="1" source="2Fw3K3ErpVfma8s09jKB-12" target="2Fw3K3ErpVfma8s09jKB-15" edge="1">
          <mxGeometry relative="1" as="geometry" />
        </mxCell>
        <mxCell id="2Fw3K3ErpVfma8s09jKB-18" value="流转" style="edgeLabel;html=1;align=center;verticalAlign=middle;resizable=0;points=[];" parent="2Fw3K3ErpVfma8s09jKB-16" vertex="1" connectable="0">
          <mxGeometry x="-0.0606" relative="1" as="geometry">
            <mxPoint as="offset" />
          </mxGeometry>
        </mxCell>
        <mxCell id="GhOr7ypgz1Hb5UwMiD2d-4" value="" style="rounded=0;whiteSpace=wrap;html=1;dashed=1;dashPattern=8 8;fillColor=#D4E1F5;" vertex="1" parent="1">
          <mxGeometry x="-630" y="140" width="210" height="140" as="geometry" />
        </mxCell>
        <mxCell id="GhOr7ypgz1Hb5UwMiD2d-5" value="" style="rounded=0;whiteSpace=wrap;html=1;dashed=1;dashPattern=8 8;fillColor=#d5e8d4;strokeColor=#82b366;" vertex="1" parent="1">
          <mxGeometry x="-420" y="140" width="210" height="140" as="geometry" />
        </mxCell>
        <mxCell id="GhOr7ypgz1Hb5UwMiD2d-6" value="" style="rounded=0;whiteSpace=wrap;html=1;dashed=1;dashPattern=8 8;" vertex="1" parent="1">
          <mxGeometry x="-770" y="280" width="560" height="170" as="geometry" />
        </mxCell>
        <mxCell id="GhOr7ypgz1Hb5UwMiD2d-7" value="" style="rounded=0;whiteSpace=wrap;html=1;dashed=1;dashPattern=8 8;fillColor=#D4E1F5;" vertex="1" parent="1">
          <mxGeometry x="-630" y="280" width="210" height="170" as="geometry" />
        </mxCell>
        <mxCell id="GhOr7ypgz1Hb5UwMiD2d-8" value="" style="rounded=0;whiteSpace=wrap;html=1;dashed=1;dashPattern=8 8;fillColor=#d5e8d4;strokeColor=#82b366;" vertex="1" parent="1">
          <mxGeometry x="-420" y="280" width="210" height="170" as="geometry" />
        </mxCell>
        <mxCell id="GhOr7ypgz1Hb5UwMiD2d-9" value="" style="rounded=0;whiteSpace=wrap;html=1;dashed=1;dashPattern=8 8;" vertex="1" parent="1">
          <mxGeometry x="-770" y="450" width="560" height="140" as="geometry" />
        </mxCell>
        <mxCell id="GhOr7ypgz1Hb5UwMiD2d-10" value="" style="rounded=0;whiteSpace=wrap;html=1;dashed=1;dashPattern=8 8;fillColor=#D4E1F5;" vertex="1" parent="1">
          <mxGeometry x="-630" y="450" width="210" height="140" as="geometry" />
        </mxCell>
        <mxCell id="GhOr7ypgz1Hb5UwMiD2d-11" value="" style="rounded=0;whiteSpace=wrap;html=1;dashed=1;dashPattern=8 8;fillColor=#d5e8d4;strokeColor=#82b366;" vertex="1" parent="1">
          <mxGeometry x="-420" y="450" width="210" height="140" as="geometry" />
        </mxCell>
        <mxCell id="GhOr7ypgz1Hb5UwMiD2d-12" value="&lt;font color=&quot;#4d9900&quot; style=&quot;font-size: 18px;&quot;&gt;Plcs提测&lt;/font&gt;" style="text;html=1;align=center;verticalAlign=middle;whiteSpace=wrap;rounded=0;" vertex="1" parent="1">
          <mxGeometry x="-760" y="200" width="120" height="30" as="geometry" />
        </mxCell>
        <mxCell id="GhOr7ypgz1Hb5UwMiD2d-13" value="&lt;font color=&quot;#4d9900&quot; style=&quot;font-size: 18px;&quot;&gt;UNI冒烟&lt;/font&gt;" style="text;html=1;align=center;verticalAlign=middle;whiteSpace=wrap;rounded=0;" vertex="1" parent="1">
          <mxGeometry x="-760" y="330" width="120" height="30" as="geometry" />
        </mxCell>
        <mxCell id="GhOr7ypgz1Hb5UwMiD2d-14" value="&lt;font color=&quot;#4d9900&quot; style=&quot;font-size: 18px;&quot;&gt;UNI回归&lt;/font&gt;" style="text;html=1;align=center;verticalAlign=middle;whiteSpace=wrap;rounded=0;" vertex="1" parent="1">
          <mxGeometry x="-760" y="505" width="120" height="30" as="geometry" />
        </mxCell>
        <mxCell id="GhOr7ypgz1Hb5UwMiD2d-15" value="&lt;font color=&quot;#0000ff&quot; style=&quot;font-size: 16px;&quot;&gt;开发人员&lt;/font&gt;" style="text;html=1;align=center;verticalAlign=middle;whiteSpace=wrap;rounded=0;" vertex="1" parent="1">
          <mxGeometry x="-585" y="100" width="120" height="30" as="geometry" />
        </mxCell>
        <mxCell id="GhOr7ypgz1Hb5UwMiD2d-16" value="&lt;font color=&quot;#0000ff&quot; style=&quot;font-size: 16px;&quot;&gt;测试人员&lt;/font&gt;" style="text;html=1;align=center;verticalAlign=middle;whiteSpace=wrap;rounded=0;" vertex="1" parent="1">
          <mxGeometry x="-375" y="100" width="120" height="30" as="geometry" />
        </mxCell>
        <mxCell id="GhOr7ypgz1Hb5UwMiD2d-18" value="建模块" style="rounded=1;whiteSpace=wrap;html=1;fillColor=#99CCFF;" vertex="1" parent="1">
          <mxGeometry x="-570" y="160" width="90" height="40" as="geometry" />
        </mxCell>
        <mxCell id="GhOr7ypgz1Hb5UwMiD2d-32" style="edgeStyle=orthogonalEdgeStyle;rounded=0;orthogonalLoop=1;jettySize=auto;html=1;entryX=0;entryY=0.5;entryDx=0;entryDy=0;" edge="1" parent="1" source="GhOr7ypgz1Hb5UwMiD2d-20" target="GhOr7ypgz1Hb5UwMiD2d-30">
          <mxGeometry relative="1" as="geometry">
            <Array as="points">
              <mxPoint x="-525" y="370" />
            </Array>
          </mxGeometry>
        </mxCell>
        <mxCell id="GhOr7ypgz1Hb5UwMiD2d-20" value="UT流水线" style="rounded=1;whiteSpace=wrap;html=1;fillColor=#99CCFF;" vertex="1" parent="1">
          <mxGeometry x="-570" y="300" width="90" height="40" as="geometry" />
        </mxCell>
        <mxCell id="GhOr7ypgz1Hb5UwMiD2d-35" style="edgeStyle=orthogonalEdgeStyle;rounded=0;orthogonalLoop=1;jettySize=auto;html=1;entryX=1;entryY=0.5;entryDx=0;entryDy=0;" edge="1" parent="1" source="GhOr7ypgz1Hb5UwMiD2d-21" target="GhOr7ypgz1Hb5UwMiD2d-30">
          <mxGeometry relative="1" as="geometry">
            <Array as="points">
              <mxPoint x="-310" y="370" />
            </Array>
          </mxGeometry>
        </mxCell>
        <mxCell id="GhOr7ypgz1Hb5UwMiD2d-21" value="AT流水线" style="rounded=1;whiteSpace=wrap;html=1;fillColor=#99CCFF;" vertex="1" parent="1">
          <mxGeometry x="-355" y="300" width="90" height="40" as="geometry" />
        </mxCell>
        <mxCell id="GhOr7ypgz1Hb5UwMiD2d-26" style="edgeStyle=orthogonalEdgeStyle;rounded=0;orthogonalLoop=1;jettySize=auto;html=1;entryX=1;entryY=0.5;entryDx=0;entryDy=0;" edge="1" parent="1" source="GhOr7ypgz1Hb5UwMiD2d-17" target="GhOr7ypgz1Hb5UwMiD2d-18">
          <mxGeometry relative="1" as="geometry" />
        </mxCell>
        <mxCell id="GhOr7ypgz1Hb5UwMiD2d-17" value="流水线和用例配置" style="rounded=1;whiteSpace=wrap;html=1;fillColor=#99CCFF;" vertex="1" parent="1">
          <mxGeometry x="-370" y="160" width="120" height="40" as="geometry" />
        </mxCell>
        <mxCell id="GhOr7ypgz1Hb5UwMiD2d-28" style="edgeStyle=orthogonalEdgeStyle;rounded=0;orthogonalLoop=1;jettySize=auto;html=1;" edge="1" parent="1" source="GhOr7ypgz1Hb5UwMiD2d-27" target="GhOr7ypgz1Hb5UwMiD2d-20">
          <mxGeometry relative="1" as="geometry">
            <Array as="points">
              <mxPoint x="-465" y="270" />
              <mxPoint x="-525" y="270" />
            </Array>
          </mxGeometry>
        </mxCell>
        <mxCell id="GhOr7ypgz1Hb5UwMiD2d-29" style="edgeStyle=orthogonalEdgeStyle;rounded=0;orthogonalLoop=1;jettySize=auto;html=1;entryX=0.5;entryY=0;entryDx=0;entryDy=0;" edge="1" parent="1" source="GhOr7ypgz1Hb5UwMiD2d-27" target="GhOr7ypgz1Hb5UwMiD2d-21">
          <mxGeometry relative="1" as="geometry">
            <Array as="points">
              <mxPoint x="-465" y="270" />
              <mxPoint x="-310" y="270" />
            </Array>
          </mxGeometry>
        </mxCell>
        <mxCell id="GhOr7ypgz1Hb5UwMiD2d-27" value="提测" style="rounded=1;whiteSpace=wrap;html=1;fillColor=#99CCFF;" vertex="1" parent="1">
          <mxGeometry x="-510" y="220" width="90" height="40" as="geometry" />
        </mxCell>
        <mxCell id="GhOr7ypgz1Hb5UwMiD2d-36" style="edgeStyle=orthogonalEdgeStyle;rounded=0;orthogonalLoop=1;jettySize=auto;html=1;" edge="1" parent="1" source="GhOr7ypgz1Hb5UwMiD2d-30" target="GhOr7ypgz1Hb5UwMiD2d-31">
          <mxGeometry relative="1" as="geometry" />
        </mxCell>
        <mxCell id="GhOr7ypgz1Hb5UwMiD2d-30" value="收集覆盖率" style="rounded=1;whiteSpace=wrap;html=1;fillColor=#99CCFF;" vertex="1" parent="1">
          <mxGeometry x="-460" y="350" width="90" height="40" as="geometry" />
        </mxCell>
        <mxCell id="GhOr7ypgz1Hb5UwMiD2d-38" style="edgeStyle=orthogonalEdgeStyle;rounded=0;orthogonalLoop=1;jettySize=auto;html=1;exitX=1;exitY=0.5;exitDx=0;exitDy=0;dashed=1;dashPattern=8 8;" edge="1" parent="1" source="GhOr7ypgz1Hb5UwMiD2d-31" target="GhOr7ypgz1Hb5UwMiD2d-37">
          <mxGeometry relative="1" as="geometry" />
        </mxCell>
        <mxCell id="GhOr7ypgz1Hb5UwMiD2d-42" style="edgeStyle=orthogonalEdgeStyle;rounded=0;orthogonalLoop=1;jettySize=auto;html=1;exitX=0.5;exitY=1;exitDx=0;exitDy=0;entryX=0.5;entryY=0;entryDx=0;entryDy=0;" edge="1" parent="1" source="GhOr7ypgz1Hb5UwMiD2d-31" target="GhOr7ypgz1Hb5UwMiD2d-41">
          <mxGeometry relative="1" as="geometry" />
        </mxCell>
        <mxCell id="GhOr7ypgz1Hb5UwMiD2d-31" value="门禁" style="rhombus;whiteSpace=wrap;html=1;fillColor=#99CCFF;" vertex="1" parent="1">
          <mxGeometry x="-455" y="420" width="80" height="80" as="geometry" />
        </mxCell>
        <mxCell id="GhOr7ypgz1Hb5UwMiD2d-37" value="1.行差异覆盖率80%&lt;div&gt;2.接口覆盖率100%&lt;/div&gt;&lt;div&gt;3.UT差异覆盖率80%&lt;/div&gt;&lt;div&gt;4.无新增 Blocker、Critical&lt;/div&gt;" style="rounded=1;whiteSpace=wrap;html=1;align=left;" vertex="1" parent="1">
          <mxGeometry x="-150" y="425" width="170" height="70" as="geometry" />
        </mxCell>
        <mxCell id="GhOr7ypgz1Hb5UwMiD2d-41" value="" style="ellipse;html=1;shape=endState;fillColor=#000000;strokeColor=#ff0000;" vertex="1" parent="1">
          <mxGeometry x="-430" y="540" width="30" height="30" as="geometry" />
        </mxCell>
      </root>
    </mxGraphModel>
  </diagram>
</mxfile>
